<svg xmlns="http://www.w3.org/2000/svg" xmlns:xlink="http://www.w3.org/1999/xlink" width="73" height="73" viewBox="0 0 73 73">
  <defs>
    <clipPath id="clip-path">
      <rect id="Rectangle_19000" data-name="Rectangle 19000" width="73" height="73" transform="translate(481 1629)" fill="#4a3c98"/>
    </clipPath>
    <clipPath id="clip-path-2">
      <rect id="Rectangle_19082" data-name="Rectangle 19082" width="73" height="73" fill="#fff"/>
    </clipPath>
  </defs>
  <g id="Mask_Group_5" data-name="Mask Group 5" transform="translate(-481 -1629)" clip-path="url(#clip-path)">
    <g id="Stats" transform="translate(481 1629)" clip-path="url(#clip-path-2)">
      <path id="Path_35921" data-name="Path 35921" d="M36.5,73A36.5,36.5,0,1,0,10.691,62.309,36.5,36.5,0,0,0,36.5,73Z" transform="translate(0 0)" fill="#dbeeff"/>
      <path id="Path_35922" data-name="Path 35922" d="M7.5,35.315,14.8,19.54c2.281-4.562,8.315-5.943,10.266-2.281C34.875,35.1,51.414,36.25,51.414,36.25" transform="translate(6.188 12.511)" fill="none" stroke="#f17d7c" stroke-linecap="round" stroke-linejoin="round" stroke-width="0.625" opacity="0.2"/>
      <path id="Path_35923" data-name="Path 35923" d="M7.5,32.321l12.2-9.4a15.341,15.341,0,0,1,16.607-.913L54.266,32.549" transform="translate(6.188 16.498)" fill="none" stroke="#f17d7c" stroke-linecap="round" stroke-linejoin="round" stroke-width="0.625" opacity="0.2"/>
      <path id="Path_35924" data-name="Path 35924" d="M7.188,27.188H57.375" transform="translate(5.93 22.43)" fill="none" stroke="#1e88e5" stroke-linecap="round" stroke-linejoin="round" stroke-width="0.625"/>
      <path id="Path_35925" data-name="Path 35925" d="M10.938,29.469V27.188" transform="translate(9.023 22.43)" fill="none" stroke="#1e88e5" stroke-linecap="round" stroke-linejoin="round" stroke-width="0.625"/>
      <path id="Path_35926" data-name="Path 35926" d="M31.563,29.469V27.188" transform="translate(26.039 22.43)" fill="none" stroke="#0aa7b9" stroke-linecap="round" stroke-linejoin="round" stroke-width="0.625"/>
      <path id="Path_35927" data-name="Path 35927" d="M17.813,29.469V27.188" transform="translate(14.695 22.43)" fill="none" stroke="#1e88e5" stroke-linecap="round" stroke-linejoin="round" stroke-width="0.625"/>
      <path id="Path_35928" data-name="Path 35928" d="M24.688,29.469V27.188" transform="translate(20.367 22.43)" fill="none" stroke="#1e88e5" stroke-linecap="round" stroke-linejoin="round" stroke-width="0.625"/>
      <path id="Path_35929" data-name="Path 35929" d="M7.188,11.563V39.508" transform="translate(5.93 9.539)" fill="none" stroke="#1e88e5" stroke-linecap="round" stroke-linejoin="round" stroke-width="0.631"/>
      <path id="Path_35930" data-name="Path 35930" d="M7.188,37.057,26.578,16.092c3.422-3.422,8.3-2.2,10.266,3.958,3.422,10.767,10.973,19.7,19.391,19.835" transform="translate(5.93 11.728)" fill="none" stroke="#ed7279" stroke-linecap="round" stroke-linejoin="round" stroke-width="0.625"/>
    </g>
  </g>
</svg>
