<svg id="SvgjsSvg1050" width="288" height="288" xmlns="http://www.w3.org/2000/svg" version="1.1" xmlns:xlink="http://www.w3.org/1999/xlink" xmlns:svgjs="http://svgjs.com/svgjs"><defs id="SvgjsDefs1051"></defs><g id="SvgjsG1052"><svg xmlns="http://www.w3.org/2000/svg" viewBox="0 0 73 73" width="288" height="288"><defs><clipPath id="a"><rect width="73" height="73" fill="#4a3c98" data-name="Rectangle 19000" transform="translate(481 1629)" class="color4a3c98 svgShape"></rect></clipPath><clipPath id="b"><rect width="73" height="73" fill="#ffffff" data-name="Rectangle 19082" class="colorfff svgShape"></rect></clipPath></defs><g clip-path="url(#a)" data-name="Mask Group 5" transform="translate(-481 -1629)"><g clip-path="url(#b)" transform="translate(481 1629)"><path fill="#008080" d="M36.5,73A36.5,36.5,0,1,0,10.691,62.309,36.5,36.5,0,0,0,36.5,73Z" data-name="Path 35921" class="colordbeeff svgShape"></path><path fill="none" stroke="#f17d7c" stroke-linecap="round" stroke-linejoin="round" stroke-width=".625" d="M7.5,35.315,14.8,19.54c2.281-4.562,8.315-5.943,10.266-2.281C34.875,35.1,51.414,36.25,51.414,36.25" data-name="Path 35922" opacity=".2" transform="translate(6.188 12.511)" class="colorStrokef17d7c svgStroke"></path><path fill="none" stroke="#f17d7c" stroke-linecap="round" stroke-linejoin="round" stroke-width=".625" d="M7.5,32.321l12.2-9.4a15.341,15.341,0,0,1,16.607-.913L54.266,32.549" data-name="Path 35923" opacity=".2" transform="translate(6.188 16.498)" class="colorStrokef17d7c svgStroke"></path><path fill="none" stroke="#004c99" stroke-linecap="round" stroke-linejoin="round" stroke-width=".625" d="M7.188,27.188H57.375" data-name="Path 35924" transform="translate(5.93 22.43)" class="colorStroke1e88e5 svgStroke"></path><path fill="none" stroke="#004c99" stroke-linecap="round" stroke-linejoin="round" stroke-width=".625" d="M10.938,29.469V27.188" data-name="Path 35925" transform="translate(9.023 22.43)" class="colorStroke1e88e5 svgStroke"></path><path fill="none" stroke="#0aa7b9" stroke-linecap="round" stroke-linejoin="round" stroke-width=".625" d="M31.563,29.469V27.188" data-name="Path 35926" transform="translate(26.039 22.43)" class="colorStroke0aa7b9 svgStroke"></path><path fill="none" stroke="#004c99" stroke-linecap="round" stroke-linejoin="round" stroke-width=".625" d="M17.813,29.469V27.188" data-name="Path 35927" transform="translate(14.695 22.43)" class="colorStroke1e88e5 svgStroke"></path><path fill="none" stroke="#004c99" stroke-linecap="round" stroke-linejoin="round" stroke-width=".625" d="M24.688,29.469V27.188" data-name="Path 35928" transform="translate(20.367 22.43)" class="colorStroke1e88e5 svgStroke"></path><path fill="none" stroke="#004c99" stroke-linecap="round" stroke-linejoin="round" stroke-width=".631" d="M7.188,11.563V39.508" data-name="Path 35929" transform="translate(5.93 9.539)" class="colorStroke1e88e5 svgStroke"></path><path fill="none" stroke="#ed7279" stroke-linecap="round" stroke-linejoin="round" stroke-width=".625" d="M7.188,37.057,26.578,16.092c3.422-3.422,8.3-2.2,10.266,3.958,3.422,10.767,10.973,19.7,19.391,19.835" data-name="Path 35930" transform="translate(5.93 11.728)" class="colorStrokeed7279 svgStroke"></path></g></g></svg></g></svg>