<svg id="SvgjsSvg1001" width="288" height="288" xmlns="http://www.w3.org/2000/svg" version="1.1" xmlns:xlink="http://www.w3.org/1999/xlink" xmlns:svgjs="http://svgjs.com/svgjs"><defs id="SvgjsDefs1002"></defs><g id="SvgjsG1008"><svg xmlns="http://www.w3.org/2000/svg" viewBox="0 0 73 73" width="288" height="288"><defs><clipPath id="a"><rect width="73" height="73" fill="#fdc73b" data-name="Rectangle 18999" transform="translate(481 1393)" class="colorfdc73b svgShape"></rect></clipPath><clipPath id="b"><rect width="73" height="73" fill="#ffffff" data-name="Rectangle 19081" class="colorfff svgShape"></rect></clipPath></defs><g clip-path="url(#a)" data-name="Mask Group 4" transform="translate(-481 -1393)"><g clip-path="url(#b)" transform="translate(481 1393)"><path fill="#008080" d="M36.5,73A36.5,36.5,0,1,0,0,36.5,36.5,36.5,0,0,0,36.5,73Z" data-name="Path 35894" class="colordbeeff svgShape"></path><path fill="none" stroke="#0aa7b9" stroke-linecap="round" stroke-linejoin="round" stroke-width=".625" d="M42.923,13.781H5.625v3.593h37.3Z" data-name="Path 35895" transform="translate(4.641 11.37)" class="colorStroke0aa7b9 svgStroke"></path><path fill="none" stroke="#0aa7b9" stroke-linecap="round" stroke-linejoin="round" stroke-width=".625" d="M7.03,15.278a.342.342,0,1,0-.342-.342A.343.343,0,0,0,7.03,15.278Z" data-name="Path 35896" transform="translate(5.517 12.04)" class="colorStroke0aa7b9 svgStroke"></path><path fill="none" stroke="#0aa7b9" stroke-linecap="round" stroke-linejoin="round" stroke-width=".625" d="M8.186,15.278a.342.342,0,1,0-.342-.342A.343.343,0,0,0,8.186,15.278Z" data-name="Path 35897" transform="translate(6.471 12.04)" class="colorStroke0aa7b9 svgStroke"></path><path fill="none" stroke="#0aa7b9" stroke-linecap="round" stroke-linejoin="round" stroke-width=".625" d="M9.311,15.278a.342.342,0,1,0-.342-.342A.343.343,0,0,0,9.311,15.278Z" data-name="Path 35898" transform="translate(7.399 12.04)" class="colorStroke0aa7b9 svgStroke"></path><path fill="none" stroke="#0aa7b9" stroke-linecap="round" stroke-linejoin="round" stroke-width=".625" d="M21.879,17.374H5.625V13.781H21.879" data-name="Path 35899" transform="translate(4.641 11.37)" class="colorStroke0aa7b9 svgStroke"></path><path fill="none" stroke="#0aa7b9" stroke-linecap="round" stroke-linejoin="round" stroke-width=".625" d="M21.423,38.59H5.625V13.781" data-name="Path 35900" transform="translate(4.641 11.37)" class="colorStroke0aa7b9 svgStroke"></path><path fill="none" stroke="#0aa7b9" stroke-linecap="round" stroke-linejoin="round" stroke-width=".625" d="M19.791,26.239H11.635a3.479,3.479,0,0,1,0-6.958h8.155" data-name="Path 35901" transform="translate(6.729 15.907)" class="colorStroke0aa7b9 svgStroke"></path><path fill="none" stroke="#0aa7b9" stroke-linecap="round" stroke-linejoin="round" stroke-width=".625" d="M10.916,22.614a1.2,1.2,0,1,0-1.2-1.2A1.2,1.2,0,0,0,10.916,22.614Z" data-name="Path 35902" transform="translate(8.018 16.68)" class="colorStroke0aa7b9 svgStroke"></path><path fill="none" stroke="#0aa7b9" stroke-linecap="round" stroke-linejoin="round" stroke-width=".625" d="M10.781,21.5l.97,1.255" data-name="Path 35903" transform="translate(8.895 17.737)" class="colorStroke0aa7b9 svgStroke"></path><path fill="#0aa7b9" d="M39.429,12.783c-5.817-1.312-7.756,2.738-7.756,2.738s-1.939-4.106-7.756-2.738c0,0-6.388,2.224-8.041,2.167V36.565s5.361-1.825,6.787-2.167,5.646-1.882,9.011,1.654c3.365-3.536,7.585-2,9.011-1.654s6.787,2.167,6.787,2.167V14.95C45.816,15.007,39.429,12.783,39.429,12.783Z" data-name="Path 35904" opacity=".2" transform="translate(13.097 10.315)" class="color0aa7b9 svgShape"></path><path fill="#008080" d="M39.4,12.658c-5.76-1.312-7.756,2.738-7.756,2.738s-1.939-4.106-7.756-2.738c0,0-6.388,2.224-8.041,2.167V36.5s5.361-1.825,6.787-2.167,5.646-1.882,9.011,1.654c3.365-3.536,7.585-2,9.011-1.654S47.439,36.5,47.439,36.5V14.825C45.842,14.825,39.4,12.658,39.4,12.658Z" data-name="Path 35905" transform="translate(13.071 10.212)" class="colore8f7f8 svgShape"></path><path fill="none" stroke="#ffffff" stroke-linecap="round" stroke-linejoin="round" stroke-width=".625" d="M31.063,36.993c2.4.741,6.1,2,6.1,2V13.781" data-name="Path 35906" transform="translate(25.627 11.37)" class="colorStroke1e88e5 svgStroke"></path><path fill="none" stroke="#ffffff" stroke-linecap="round" stroke-linejoin="round" stroke-width=".625" d="M14.625,13.781V38.989s6.1-2.11,7.756-2.509c1.369-.342,4.848-1.54,8.155.228h4.22A8.46,8.46,0,0,1,39.6,35.8c.456.057.912.114,1.312.171" data-name="Path 35907" transform="translate(12.066 11.37)" class="colorStroke1e88e5 svgStroke"></path><path fill="none" stroke="#ffffff" stroke-linecap="round" stroke-linejoin="round" stroke-width=".625" d="M24.5,14.031V34.563" data-name="Path 35908" transform="translate(20.213 11.576)" class="colorStroke1e88e5 svgStroke"></path><path fill="none" stroke="#ffffff" stroke-linecap="round" stroke-linejoin="round" stroke-width=".625" d="M19.551,13.281a17.467,17.467,0,0,1-3.707.8V35.752s5.361-1.825,6.787-2.167,5.646-1.882,9.011,1.654c3.365-3.536,7.585-2,9.011-1.654s6.787,2.167,6.787,2.167V31.189" data-name="Path 35909" transform="translate(13.071 10.957)" class="colorStroke1e88e5 svgStroke"></path><path fill="none" stroke="#ffffff" stroke-linecap="round" stroke-linejoin="round" stroke-width=".625" d="M44.087,28.559V14.814c-1.654,0-8.041-2.167-8.041-2.167a7.3,7.3,0,0,0-5.874.8,5.24,5.24,0,0,0-1.825,2s-1.939-4.106-7.756-2.737c0,0-.285.114-.684.228" data-name="Path 35910" transform="translate(16.423 10.223)" class="colorStroke1e88e5 svgStroke"></path><path fill="none" stroke="#ed7279" stroke-linecap="round" stroke-linejoin="round" stroke-width=".625" d="M26.25,15.969l9.524.057" data-name="Path 35911" transform="translate(21.656 13.174)" class="colorStrokeed7279 svgStroke"></path><path fill="none" stroke="#ed7279" stroke-linecap="round" stroke-linejoin="round" stroke-width=".625" d="M26.25,17.438l9.524.057" data-name="Path 35912" transform="translate(21.656 14.386)" class="colorStrokeed7279 svgStroke"></path><path fill="none" stroke="#0aa7b9" stroke-linecap="round" stroke-linejoin="round" stroke-width=".625" d="M26.25,18.906l9.467.057" data-name="Path 35913" transform="translate(21.656 15.598)" class="colorStroke0aa7b9 svgStroke"></path><path fill="none" stroke="#0aa7b9" stroke-linecap="round" stroke-linejoin="round" stroke-width=".625" d="M26.219,20.375l9.524.057" data-name="Path 35914" transform="translate(21.631 16.809)" class="colorStroke0aa7b9 svgStroke"></path><path fill="none" stroke="#0aa7b9" stroke-linecap="round" stroke-linejoin="round" stroke-width=".625" d="M26.219,21.844l9.467.057" data-name="Path 35915" transform="translate(21.631 18.021)" class="colorStroke0aa7b9 svgStroke"></path><path fill="none" stroke="#0aa7b9" stroke-linecap="round" stroke-linejoin="round" stroke-width=".625" d="M17.594,15.969l9.467.057" data-name="Path 35916" transform="translate(14.515 13.174)" class="colorStroke0aa7b9 svgStroke"></path><path fill="none" stroke="#0aa7b9" stroke-linecap="round" stroke-linejoin="round" stroke-width=".625" d="M17.563,17.438l9.524.057" data-name="Path 35917" transform="translate(14.489 14.386)" class="colorStroke0aa7b9 svgStroke"></path><path fill="none" stroke="#ed7279" stroke-linecap="round" stroke-linejoin="round" stroke-width=".625" d="M17.563,18.906l9.524.057" data-name="Path 35918" transform="translate(14.489 15.598)" class="colorStrokeed7279 svgStroke"></path><path fill="none" stroke="#ed7279" stroke-linecap="round" stroke-linejoin="round" stroke-width=".625" d="M17.563,20.375l9.467.057" data-name="Path 35919" transform="translate(14.489 16.809)" class="colorStrokeed7279 svgStroke"></path><path fill="none" stroke="#0aa7b9" stroke-linecap="round" stroke-linejoin="round" stroke-width=".625" d="M17.531,21.844l9.524.057" data-name="Path 35920" transform="translate(14.463 18.021)" class="colorStroke0aa7b9 svgStroke"></path></g></g></svg></g></svg>