<svg id="SvgjsSvg1111" width="288" height="288" xmlns="http://www.w3.org/2000/svg" version="1.1" xmlns:xlink="http://www.w3.org/1999/xlink" xmlns:svgjs="http://svgjs.com/svgjs"><defs id="SvgjsDefs1112"></defs><g id="SvgjsG1113"><svg xmlns="http://www.w3.org/2000/svg" viewBox="0 0 75 75" width="288" height="288"><defs><clipPath id="a"><rect width="75" height="75" fill="#6dbd94" data-name="Rectangle 19001" transform="translate(159 1629)" class="color6dbd94 svgShape"></rect></clipPath></defs><g clip-path="url(#a)" data-name="Mask Group 2" transform="translate(-159 -1629)"><g transform="translate(159 1629)"><path fill="#008080" d="M37.459,74.918A37.459,37.459,0,1,0,0,37.459,37.459,37.459,0,0,0,37.459,74.918Z" data-name="Path 35862" class="colordbeeff svgShape"></path><path fill="#e8f7f8" d="M51.258,8.375H9.584A1.55,1.55,0,0,0,8.062,9.9V36.821a1.55,1.55,0,0,0,1.522,1.522H26.792l1.639,2.107L30.3,42.908l1.873-2.458,1.639-2.107H51.14a1.55,1.55,0,0,0,1.522-1.522V9.9A1.452,1.452,0,0,0,51.258,8.375Z" data-name="Path 35863" transform="translate(7.038 7.311)" class="colore8f7f8 svgShape"></path><path fill="none" stroke="#ff7578" stroke-linecap="round" stroke-linejoin="round" stroke-miterlimit="10" stroke-width=".625" d="M26.5,28.313h7.024" data-name="Path 35864" transform="translate(23.133 24.716)" class="colorStrokeff7578 svgStroke"></path><path fill="none" stroke="#bce7eb" stroke-linecap="round" stroke-linejoin="round" stroke-miterlimit="10" stroke-width=".625" d="M9.688,28.313h9.833" data-name="Path 35865" transform="translate(8.457 24.716)" class="colorStrokebce7eb svgStroke"></path><path fill="none" stroke="#ff7578" stroke-linecap="round" stroke-linejoin="round" stroke-miterlimit="10" stroke-width=".625" d="M17,28.313H38.188" data-name="Path 35866" transform="translate(14.84 24.716)" class="colorStrokeff7578 svgStroke"></path><path fill="none" stroke="#bce7eb" stroke-linecap="round" stroke-linejoin="round" stroke-miterlimit="10" stroke-width=".625" d="M12.75,30.063H41.313" data-name="Path 35867" transform="translate(11.13 26.243)" class="colorStrokebce7eb svgStroke"></path><path fill="none" stroke="#bce7eb" stroke-linecap="round" stroke-linejoin="round" stroke-miterlimit="10" stroke-width=".625" d="M26.5,30.063h7.024" data-name="Path 35868" transform="translate(23.133 26.243)" class="colorStrokebce7eb svgStroke"></path><path fill="none" stroke="#bce7eb" stroke-linecap="round" stroke-linejoin="round" stroke-miterlimit="10" stroke-width=".625" d="M9.688,30.063h7.024" data-name="Path 35869" transform="translate(8.457 26.243)" class="colorStrokebce7eb svgStroke"></path><path fill="none" stroke="#bce7eb" stroke-linecap="round" stroke-linejoin="round" stroke-miterlimit="10" stroke-width=".625" d="M12.75,31.812H41.313" data-name="Path 35870" transform="translate(11.13 27.771)" class="colorStrokebce7eb svgStroke"></path><path fill="none" stroke="#bce7eb" stroke-linecap="round" stroke-linejoin="round" stroke-miterlimit="10" stroke-width=".625" d="M26.5,31.812h7.024" data-name="Path 35871" transform="translate(23.133 27.771)" class="colorStrokebce7eb svgStroke"></path><path fill="none" stroke="#bce7eb" stroke-linecap="round" stroke-linejoin="round" stroke-miterlimit="10" stroke-width=".625" d="M9.688,31.812h7.024" data-name="Path 35872" transform="translate(8.457 27.771)" class="colorStrokebce7eb svgStroke"></path><path fill="#0aa7b9" d="M9.584,30.977H26.792l1.639,2.107L30.3,35.542l1.873-2.458,1.639-2.107H51.14a1.55,1.55,0,0,0,1.522-1.522V16.812H8.062V29.455A1.55,1.55,0,0,0,9.584,30.977Z" data-name="Path 35873" opacity=".2" transform="translate(7.038 14.677)" class="color0aa7b9 svgShape"></path><path fill="#e8f7f8" stroke="#ffffff" stroke-linecap="round" stroke-linejoin="round" stroke-miterlimit="10" stroke-width=".625" d="M17.32,17.875H10.063v9.131H17.32Z" data-name="Path 35874" transform="translate(8.784 15.604)" class="colore8f7f8 svgShape colorStroke1e88e5 svgStroke"></path><path fill="none" stroke="#ffffff" stroke-linecap="round" stroke-linejoin="round" stroke-miterlimit="10" stroke-width=".625" d="M14.691,18.813H11.063" data-name="Path 35875" transform="translate(9.657 16.423)" class="colorStroke1e88e5 svgStroke"></path><path fill="none" stroke="#ffffff" stroke-linecap="round" stroke-linejoin="round" stroke-miterlimit="10" stroke-width=".625" d="M13.755,19.813H11.063" data-name="Path 35876" transform="translate(9.657 17.296)" class="colorStroke1e88e5 svgStroke"></path><path fill="#e8f7f8" stroke="#ffffff" stroke-linecap="round" stroke-linejoin="round" stroke-miterlimit="10" stroke-width=".625" d="M14.691,20.75H11.063v1.873h3.629Z" data-name="Path 35877" transform="translate(9.657 18.114)" class="colore8f7f8 svgShape colorStroke1e88e5 svgStroke"></path><path fill="none" stroke="#ffffff" stroke-linecap="round" stroke-linejoin="round" stroke-miterlimit="10" stroke-width=".625" d="M27.5,20.313h4.448" data-name="Path 35878" transform="translate(24.006 17.732)" class="colorStroke1e88e5 svgStroke"></path><path fill="none" stroke="#ffffff" stroke-linecap="round" stroke-linejoin="round" stroke-miterlimit="10" stroke-width=".625" d="M28.687,19.063,30.912,21.4l-2.224,2.224" data-name="Path 35879" transform="translate(25.043 16.641)" class="colorStroke1e88e5 svgStroke"></path><path fill="none" stroke="#ff7578" stroke-linecap="round" stroke-linejoin="round" stroke-miterlimit="10" stroke-width=".625" d="M10.063,10.625H22.939" data-name="Path 35880" transform="translate(8.784 9.275)" class="colorStrokeff7578 svgStroke"></path><path fill="none" stroke="#bce7eb" stroke-linecap="round" stroke-linejoin="round" stroke-miterlimit="10" stroke-width=".625" d="M10.063,13H47.171" data-name="Path 35881" transform="translate(8.784 11.348)" class="colorStrokebce7eb svgStroke"></path><path fill="none" stroke="#bce7eb" stroke-linecap="round" stroke-linejoin="round" stroke-miterlimit="10" stroke-width=".625" d="M10.063,14.75H47.171" data-name="Path 35882" transform="translate(8.784 12.876)" class="colorStrokebce7eb svgStroke"></path><path fill="none" stroke="#ffffff" stroke-linecap="round" stroke-linejoin="round" stroke-miterlimit="10" stroke-width=".625" d="M15.875,18.875H31.093" data-name="Path 35883" transform="translate(13.858 16.477)" class="colorStroke1e88e5 svgStroke"></path><path fill="none" stroke="#ffffff" stroke-linecap="round" stroke-linejoin="round" stroke-miterlimit="10" stroke-width=".625" d="M15.875,20.313H31.093" data-name="Path 35884" transform="translate(13.858 17.732)" class="colorStroke1e88e5 svgStroke"></path><path fill="none" stroke="#ffffff" stroke-linecap="round" stroke-linejoin="round" stroke-miterlimit="10" stroke-width=".625" d="M15.875,21.688H26.41" data-name="Path 35885" transform="translate(13.858 18.932)" class="colorStroke1e88e5 svgStroke"></path><path fill="none" stroke="#ffffff" stroke-linecap="round" stroke-linejoin="round" stroke-miterlimit="10" stroke-width=".625" d="M52.717,11.59V9.834a1.55,1.55,0,0,0-1.522-1.522H9.522A1.55,1.55,0,0,0,8,9.834V36.758A1.55,1.55,0,0,0,9.522,38.28H26.729l1.639,2.107,1.873,2.458,1.873-2.458,1.639-2.107H51.078A1.55,1.55,0,0,0,52.6,36.758V14.985" data-name="Path 35886" transform="translate(6.984 7.256)" class="colorStroke1e88e5 svgStroke"></path></g></g></svg></g></svg>