<svg width="51" height="51" viewBox="0 0 51 51" fill="none" xmlns="http://www.w3.org/2000/svg">
<path d="M0 5C0 2.23858 2.23858 0 5 0H46C48.7614 0 51 2.23858 51 5V46C51 48.7614 48.7614 51 46 51H5C2.23858 51 0 48.7614 0 46V5Z" fill="#42A5F5"/>
<path d="M25.125 35.75C25.9765 35.75 26.6875 35.0894 26.6875 34.25V16.75C26.6875 15.9106 25.9765 15.25 25.125 15.25C24.2735 15.25 23.5625 15.9106 23.5625 16.75V34.25C23.5625 35.0894 24.2735 35.75 25.125 35.75ZM23.8125 13.25H26.4375C27.7611 13.25 28.8125 14.2682 28.8125 15.5V35.5C28.8125 36.7318 27.7611 37.75 26.4375 37.75H23.8125C22.4889 37.75 21.4375 36.7318 21.4375 35.5V15.5C21.4375 14.2682 22.4889 13.25 23.8125 13.25ZM15.9375 35.75C16.789 35.75 17.5 35.0894 17.5 34.25V21.75C17.5 20.9106 16.789 20.25 15.9375 20.25C15.086 20.25 14.375 20.9106 14.375 21.75V34.25C14.375 35.0894 15.086 35.75 15.9375 35.75ZM14.625 18.25H17.25C18.5736 18.25 19.625 19.2682 19.625 20.5V35.5C19.625 36.7318 18.5736 37.75 17.25 37.75H14.625C13.3014 37.75 12.25 36.7318 12.25 35.5V20.5C12.25 19.2682 13.3014 18.25 14.625 18.25ZM34.3125 35.75C35.164 35.75 35.875 35.0894 35.875 34.25V29.25C35.875 28.4106 35.164 27.75 34.3125 27.75C33.461 27.75 32.75 28.4106 32.75 29.25V34.25C32.75 35.0894 33.461 35.75 34.3125 35.75ZM33 25.75H35.625C36.9486 25.75 38 26.7682 38 28V35.5C38 36.7318 36.9486 37.75 35.625 37.75H33C31.6764 37.75 30.625 36.7318 30.625 35.5V28C30.625 26.7682 31.6764 25.75 33 25.75Z" fill="white" stroke="#42A5F5" stroke-width="0.5"/>
</svg>
