<svg id="SvgjsSvg1012" width="288" height="288" xmlns="http://www.w3.org/2000/svg" version="1.1" xmlns:xlink="http://www.w3.org/1999/xlink" xmlns:svgjs="http://svgjs.com/svgjs"><defs id="SvgjsDefs1013"></defs><g id="SvgjsG1014"><svg xmlns="http://www.w3.org/2000/svg" fill="none" viewBox="0 0 51 51" width="288" height="288"><rect width="51" height="51" fill="#f5f5f5" class="colorF5F5F5 svgShape"></rect><rect width="7903" height="19853" x="-3764" y="-16877" stroke="#FF2020" stroke-width="46" class="colorStrokeFF2020 svgStroke"></rect><rect width="1440" height="810" fill="#f5f5f5" transform="translate(-530 -285)" class="colorF5F5F5 svgShape"></rect><g filter="url(#a)"><rect width="420" height="131" x="-20" y="-23" fill="#ffffff" rx="5" class="colorfff svgShape"></rect><path fill="#008080" d="M0 5C0 2.23858 2.23858 0 5 0H46C48.7614 0 51 2.23858 51 5V46C51 48.7614 48.7614 51 46 51H5C2.23858 51 0 48.7614 0 46V5Z" class="color42A5F5 svgShape"></path><path fill="#ffffff" d="M25.4993 38.2516C23.1876 38.2516 20.9278 37.5661 19.0057 36.2818C17.0835 34.9974 15.5854 33.172 14.7008 31.0362C13.8161 28.9005 13.5846 26.5503 14.0356 24.283C14.4866 22.0157 15.5998 19.9331 17.2345 18.2984C18.8691 16.6638 20.9518 15.5506 23.2191 15.0996C25.4864 14.6486 27.8365 14.8801 29.9723 15.7647C32.108 16.6494 33.9335 18.1475 35.2178 20.0696C36.5021 21.9918 37.1876 24.2516 37.1876 26.5633C37.1876 29.6632 35.9562 32.6362 33.7642 34.8282C31.5722 37.0202 28.5993 38.2516 25.4993 38.2516ZM25.4993 17.0001C23.6079 17.0001 21.759 17.561 20.1863 18.6118C18.6137 19.6626 17.3879 21.1562 16.6641 22.9036C15.9403 24.6511 15.7509 26.5739 16.1199 28.429C16.4889 30.284 17.3997 31.988 18.7372 33.3255C20.0746 34.6629 21.7786 35.5737 23.6337 35.9427C25.4887 36.3117 27.4116 36.1223 29.159 35.3985C30.9064 34.6747 32.4 33.449 33.4508 31.8763C34.5016 30.3036 35.0625 28.4547 35.0625 26.5633C35.0625 24.027 34.0549 21.5946 32.2615 19.8011C30.4681 18.0077 28.0356 17.0001 25.4993 17.0001Z" class="colorfff svgShape"></path><path fill="#ffffff" d="M28.2513 30.8132L24.4366 26.9986V20.1875H26.5618V26.1167L29.7495 29.315 28.2513 30.8132zM12.7488 16.5645L16.5542 12.7511 18.0585 14.2522 14.2531 18.0656 12.7488 16.5645zM32.937 14.2441L34.4412 12.743 38.2466 16.5564 36.7423 18.0575 32.937 14.2441z" class="colorfff svgShape"></path></g><defs><filter id="a" width="428" height="139" x="-24" y="-25" color-interpolation-filters="sRGB" filterUnits="userSpaceOnUse"><feFlood flood-opacity="0" result="BackgroundImageFix"></feFlood><feColorMatrix in="SourceAlpha" result="hardAlpha" values="0 0 0 0 0 0 0 0 0 0 0 0 0 0 0 0 0 0 127 0"></feColorMatrix><feOffset dy="2"></feOffset><feGaussianBlur stdDeviation="2"></feGaussianBlur><feComposite in2="hardAlpha" operator="out"></feComposite><feColorMatrix values="0 0 0 0 0 0 0 0 0 0 0 0 0 0 0 0 0 0 0.2 0"></feColorMatrix><feBlend in2="BackgroundImageFix" result="effect1_dropShadow_0_1"></feBlend><feBlend in="SourceGraphic" in2="effect1_dropShadow_0_1" result="shape"></feBlend></filter></defs></svg></g></svg>