<svg xmlns="http://www.w3.org/2000/svg" viewBox="0 0 512 512"><circle fill="#f0f0f0" cx="256" cy="256" r="256"/><path d="M52.92 100.142c-20.109 26.163-35.272 56.318-44.1 89.077h133.177zm450.261 89.077c-8.829-32.758-23.993-62.913-44.1-89.076l-89.072 89.076zM8.82 322.784c8.83 32.758 23.993 62.913 44.1 89.075l89.075-89.075zM411.858 52.92c-26.163-20.107-56.317-35.27-89.076-44.1v133.176zM100.142 459.08c26.163 20.109 56.318 35.272 89.076 44.102V370.005zM189.217 8.82c-32.758 8.83-62.913 23.992-89.075 44.1l89.075 89.075zm133.566 494.36c32.758-8.83 62.913-23.993 89.075-44.1l-89.075-89.075zm47.222-180.397 89.075 89.076c20.108-26.165 35.272-56.32 44.101-89.079z" fill="#0052b4"/><path d="M509.833 222.609H289.392V2.167A259 259 0 0 0 256 0a259 259 0 0 0-33.391 2.167v220.441H2.167A259 259 0 0 0 0 256a259 259 0 0 0 2.167 33.391h220.441v220.442A259 259 0 0 0 256 512a258 258 0 0 0 33.391-2.167V289.392h220.442A259 259 0 0 0 512 256a259 259 0 0 0-2.167-33.391m-187.05 100.175L437.019 437.02a257 257 0 0 0 15.048-16.435l-97.802-97.802h-31.482zm-133.566 0h-.002L74.98 437.019a257 257 0 0 0 16.435 15.048l97.802-97.804zm0-133.565v-.002L74.981 74.98a257 257 0 0 0-15.048 16.435l97.803 97.803zm133.566 0L437.02 74.981a256 256 0 0 0-16.435-15.047l-97.802 97.803z" fill="#d80027"/></svg>